<?xml version="1.0" encoding="iso-8859-1"?>
<!DOCTYPE svg PUBLIC "-//W3C//DTD SVG 1.1//EN" "http://www.w3.org/Graphics/SVG/1.1/DTD/svg11.dtd">
<svg version="1.1" id="Layer_3" xmlns="http://www.w3.org/2000/svg" xmlns:xlink="http://www.w3.org/1999/xlink" x="0px" y="0px"
	 width="24px" height="24px" viewBox="0 0 512 512" style="enable-background:new 0 0 512 512;" xml:space="preserve" fill="#AFBEC5">
<path d="M457.637,284.17l50.285-39.842l-54.174-34.372l32.666-55.217l-62.895-12.674l10.71-63.256l-63.259,10.707L358.3,26.624
	l-61.208,33.75L255.48,4.768L218.322,57.07l-53.432-35.512l-15.948,62.145l-62.61-14.005l7.383,63.731l-63.469,9.363l29.73,56.853
	L4.078,231.132l48.131,42.422l-40.902,49.427l60.137,22.356L50.971,406.14l64.154-0.68l2.678,64.101l59.648-23.626l25.471,58.884
	l47.221-43.433l44.881,45.845l28.521-57.471l58.328,26.717l6.031-63.875l64.027,4.039l-17.259-61.793l61.224-19.176L457.637,284.17z
	 M99.472,256c0-86.31,70.219-156.528,156.528-156.528S412.527,169.69,412.527,256S342.31,412.528,256,412.528
	S99.472,342.31,99.472,256z"/>
</svg>
